***************************************************************

[IMG]http://www.torrentforce.org/imghost/3/greyshadow_tfbanner.png[/IMG]

***************************************************************

[IMG]http://www.torrentforce.org/imghost/4/greyshadow_rareexports.jpg[/IMG]

***************************************************************

FILM TITLE: Rare Exports: A Christmas Tale (2010) Rare Exports (original title)

***************************************************************

Genre: Action | Comedy | Fantasy    

Rated R for some nudity and language

Release: 3 December 2010 (UK)

Director: Jalmari Helander

Writer: Petri Jokiranta (dramaturge), Sami Parkkinen

Stars: Jorma Tommila, Peeter Jakobi and Onni Tommila 

Country: Finland | Norway | France | Sweden

Language: Finnish | English 

Plot:
In the depths of the Korvatunturi mountains, 486 metres deep, lies 
the closest ever guarded secret of Christmas. The time has come 
to dig it up! This Christmas everyone will believe in Santa Claus.

IMDB Rating: 6.9/10 from 5,002 users   Metascore: 71/100
 
http://www.imdb.com/title/tt1401143/ 

****************************************************************

[IMG]http://www.torrentforce.org/imghost/4/greyshadow_rareexportsxvidvdub.png[/IMG]
[IMG]http://www.torrentforce.org/imghost/4/greyshadow_rareexportsxvid1.png[/IMG]
[IMG]http://www.torrentforce.org/imghost/4/greyshadow_rareexportsxvid2.png[/IMG]
[IMG]http://www.torrentforce.org/imghost/4/greyshadow_rareexportsxvid3.png[/IMG]
[IMG]http://www.torrentforce.org/imghost/4/greyshadow_rareexportsxvid4.png[/IMG]
[IMG]http://www.torrentforce.org/imghost/4/greyshadow_rareexportsxvidps3.png[/IMG]
[IMG]http://www.torrentforce.org/imghost/4/greyshadow_rareexportsxvidwd.png[/IMG]
[IMG]http://www.torrentforce.org/imghost/4/greyshadow_rareexportxvidplayer.png[/IMG]

****************************************************************

[IMG]http://www.torrentforce.org/imghost/2/greyshadow_mediainfo.png[/IMG]
General
Complete name                    : Rare Exports-A Christmas Tale 2010 720p BDRip XviD ac3 (avi) [TFRG].avi
Format                           : AVI
Format/Info                      : Audio Video Interleave
Format profile                   : OpenDML
File size                        : 2.68 GiB
Duration                         : 1h 22mn
Overall bit rate                 : 4638 Kbps
Writing library                  : VirtualDub build 32842/release

Video
ID                               : 0
Format                           : MPEG-4 Visual
Format profile                   : Simple@L5
Format settings, BVOP            : No
Format settings, QPel            : No
Format settings, GMC             : No warppoints
Format settings, Matrix          : Default (H.263)
Codec ID                         : XVID
Codec ID/Hint                    : XviD
Duration                         : 1h 22mn
Bit rate                         : 3 987 Kbps
Width                            : 1280 pixels
Height                           : 544 pixels
Display aspect ratio             : 2.35:1
Frame rate                       : 23.976 fps
Color space                      : YUV
Chroma subsampling               : 4:2:0
Bit depth                        : 8 bits
Scan type                        : Progressive
Compression mode                 : Lossy
Bits/(Pixel*Frame)               : 0.239
Stream size                      : 2.31 GiB (86%)
Writing library                  : XviD 64

Audio
ID                               : 1
Format                           : AC-3
Format/Info                      : Audio Coding 3
Mode extension                   : CM (complete main)
Codec ID                         : 2000
Duration                         : 1h 22mn
Bit rate mode                    : Constant
Bit rate                         : 640 Kbps
Channel(s)                       : 6 channels
Channel positions                : Front: L C R, Side: L R, LFE
Sampling rate                    : 48.0 KHz
Bit depth                        : 16 bits
Compression mode                 : Lossy
Stream size                      : 379 MiB (14%)
Alignment                        : Aligned on interleaves
Interleave, duration             : 42 ms (1.00 video frame)
Interleave, preload duration     : 512 ms

****************************************************************

Video Source: Rare Exports : A Christmas Tale 2010 US BluRay 1080p AVC DTS-HD MA5.1-CHDBits (45.GB)

Thanks: (chdbits.org)

****************************************************************

I provide a small sample, so please download this to check your 
compatibility first if you are unsure.

****************************************************************

7th October 2011

I am re-introducing my warning to all downloaders, please please
please use a proxy or vpn service, it is the only secure way to
keep your own ip address from being seen during downloading or
uploading/seeding, this WILL stop isp letters, as for advice to 
which one then thats simple, vpntunnel.se server based in Sweden 
is the right one to use, I have cancelled my vpn and transfered 
to a Swedish one already !!! enough said. 

****************************************************************

A big thanks to all the sites out there who care and share and
who make it possible for you to download this torrent for free.

Greetz to Westy, Ripwyn, mustang, noir, Blackjesus, MXMG, The Stig, 
TBone and all the other outstanding members of our community of file 
sharers and a special mention to our friends at 1337x.

****************************************************************